<?xml version="1.0" encoding="UTF-8"?>
<svg id="Ebene_2" data-name="Ebene 2" xmlns="http://www.w3.org/2000/svg" viewBox="0 0 939.4 376.36">
  <defs>
    <style>
      .cls-1 {
        fill: #9ed9c6;
      }

      .cls-2 {
        fill: #242424;
      }

      .cls-3 {
        fill: #f7d67b;
      }

      .cls-4 {
        fill: #a974c7;
      }

      .cls-5 {
        fill: #65b6ec;
      }
    </style>
  </defs>
  <g id="Ebene_1-2" data-name="Ebene 1">
    <g>
      <path class="cls-2" d="M281.68,2.39c12.05,3.95,27.15,21.78,28.59,34.63,1.62,14.48,1.19,25.81-.06,30.83-9.59,38.49-51.35,58.35-59.32,61.94-8.09,3.63-23.43,9.4-34.64,13.6-3.61,1.36-17.61,6.59-31.94,17.45-4.37,3.31-8.4,6.86-9.64,12.49-1.66,7.49,2.64,13.98,3.53,15.25,3.27,4.7,7.12,6.08,17.19,11.02,6.11,3,12.15,6.14,18.1,9.44,12.71,7.03,27.2,14.6,39.46,22.19,17.78,11.01,44.63,40.6,46.85,61.76.73,6.98.67,25.49-1.11,31.83-3.01,10.74-13.62,18.69-22.78,23.33-6.75,3.42-12.5,4.33-13.86,4.54-3.52.52-16.33,1.99-28.52-5.4-6.31-3.82-9.83-8.61-16.87-18.19-6.54-8.89-10.46-16.26-11.21-17.66-33.35-62.52-48.27-72.23-57.48-74.71-4.72-1.27-7.7-.59-9.48.15-8.08,3.33-10.28,15.32-11.5,23.24-6.57,42.52.85,55-8.98,73.77-4.09,7.81-13.04,15.72-20.6,20.65-13.78,9-28.17,15.57-45.21,10.66-24.65-7.1-45.22-31.37-50.24-56.35-7.57-37.7,8.57-68.34,21.24-102.04,9.54-25.38,16.96-43.29,12.61-72.8-4.69-31.79-24.56-66.05-10.51-98.19,10.29-23.55,53.76-30.92,79.67-17.58,10.13,5.21,15.83,12.68,22.85,21.87,5.02,6.57,20.37,28.26,21.05,58.34.07,3.28-.28,6.52-.27,9.77,4.29-2.53,8.51-5.2,12.66-7.95,18.35-12.21,32.74-32.07,44.03-50.97,2.17-3.63,3.86-7.95,6.13-11.65,14.5-23.57,40.66-44.96,70.29-35.26ZM279.14,14.92c-3.06-1.45-10.36-4.06-13.53-3.65-36.8,4.75-45.08,39.63-63.81,64.57-9.83,13.09-21.65,26.3-35.41,35.32-10.31,6.76-21.42,12.5-31.63,18.64-2.82,1.7-7.53,6.26-10.68,6.48-.9.06-4.95-1.18-5.19-1.86-.6-1.75.1-7.93-.07-10.43-1-14.64-1.3-29.59-4.52-43.98-4.23-18.92-20.51-47.91-38.88-57.22-18.12-9.18-38.09,6.92-42.06,24.73-5.8,26,8.92,55.87,13.33,81.1,6.34,36.25-2.8,56.35-14.61,87.62-10.68,28.29-24.68,55.85-19.23,87.22,4,23.04,20.33,43.6,43.07,50.43,14.07,4.23,30.7-2.53,36.52-16.29,4.76-11.26,4.11-30.91,3.91-43.64-.34-20.98-5.71-51.09,10.32-66.74,14.9-14.55,31.86-14.15,46.91-1.01,11.79,10.3,21.95,23.98,31.03,36.72,13.32,18.7,25,38.84,39.4,56.63,4.73,5.85,11.23,14.71,16.7,19.65,8.67,7.82,24.4,1.12,29.13-8.18,3.49-6.84,5.51-23.32,5-31.06-1.3-19.64-13.22-38.54-27.5-52-8.83-8.32-21.6-18.11-31.85-24.66-17.07-10.9-51.04-21.83-58.76-42.23-5.68-15.02,7.12-30.59,17.27-40.67,16.68-16.57,36.05-20.32,56.16-30.34,20.67-10.3,38.41-24.81,51.88-44.14,8.23-11.81,15.31-24.13,8.62-38.53-2.34-5.04-6.42-10.07-11.51-12.47Z"/>
      <path class="cls-2" d="M519.6,34.46c12.07,6.46,16.78,8.23,24.54,20.7,4.63,7.44,9.62,19.6,10.65,28.35.2,1.67-.58,7.09.78,7.72,6.4-8.75,16.58-20.82,31.58-32.2,3.71-2.81,12.54-10.06,23.21-14.51,22.45-9.37,60.57-18.66,79.98,1.94,22.24,23.6-.16,61.01-19.41,78.76-9.15,8.44-28.16,17.38-39.98,21.4-1.44.49-6.61,1.99-13.54,4.56-8.29,3.07-13.74,5.09-19.52,8.42-3.9,2.25-12.03,7.04-18.87,15.86-4.72,6.08-12.83,16.54-11.18,27.08,2.44,15.61,25.24,24.76,57.59,37.74,12.26,4.92,14.87,6.08,25.4,10.2,23.01,9.02,39.92,23.4,43.01,48.99,2.21,18.27-11.4,29.38-24.62,38.8-7.07,5.04-12.8,8.33-21.67,9.94-21.62,3.94-38.09-3.43-50.38-21.1-4.4-6.33-8.11-12.55-14.91-25.45-1.03-1.95-3.8-7.26-8.09-13.98-6.11-9.59-9.49-12.96-14.03-13.93-.95-.2-3.93-.84-6.51.28-8.52,3.68-3.29,22.16-7.93,40.84-5.04,20.3-22.63,41.75-44.19,43.81-9.55.91-20.63,1.1-28.28-4.97-9.5-7.53-17.46-18.91-21.42-30.2-4.68-13.33,1.42-39.66,5.55-53.4,5.57-18.51,15.12-37.49,20.33-56.76,9.73-35.94.04-65.48-7-100.23-4.25-20.98-6.94-43.19,2.4-63.38,3.73-8.07,8.06-13.42,15.97-17.54,13.37-6.95,18.42-4.24,30.55,2.26ZM487.82,347.23c8.3.78,14.57-4.52,16.66-6.18,2.78-2.21,7.11-6.62,11-17.92,3.46-10.05,3.59-16.97,4.53-26.76,2.46-25.7,4.39-43.74,15.19-48.87,3.81-1.81,7.46-1.41,10.25-1.1,11.94,1.32,19.85,11.54,27.27,21.41,3.9,5.18,6.04,8.96,9.24,14.43,0,0,29.87,51.09,46.85,55.74,4.72,1.29,7.47.87,12.21.19,11.26-1.61,20.78-4.63,26.63-15.11,13.4-24.04-11.59-48.72-31-60.16-18.89-11.13-39.94-21.63-58.2-34.16-11.28-7.74-18.85-12.85-22.15-26.73-4.86-20.39,11.56-45.62,26.01-59.05,15.78-14.67,23.96-14.44,43.49-20.5,7.74-2.4,14.12-5.8,19.45-10.05,11.01-8.76,15.69-19.4,22.71-35.76.29-.67,2.29-5.41,3.31-11.97.94-5.99.22-8.15,0-8.76-1.71-4.69-6.52-6.9-8.92-7.96-13.19-5.82-29.09-.44-36.94,2.33-11.7,4.13-19.68,9.49-24.93,13.07-13.54,9.23-22.24,18.89-25.64,22.86-16.94,19.77-28,41.58-28,41.58-3,5.91-7.08,14.73-11.79,14.34-2.35-.19-4.1-2.63-5.22-4.7.18-3.57.41-8.94.5-15.5.09-6.24.02-10.98,0-11.96-.43-24.2-7.28-44.26-7.28-44.26-2.24-7.3-8.22-25.05-16.98-26.02-10.12-1.12-18.49,4.06-22.7,12.93-2.46,5.17-3.55,10.28-4.6,15.3-2.6,12.52-.85,22.82,1.01,35.06,4.02,26.45,13.04,52.52,13.05,79.46.03,41.27-25.18,75.5-30.99,115.55-1.45,10-1.26,18.58,1.8,26.51,1.26,3.26,3.77,8.52,8.64,13.48,3.75,3.82,8.39,8.56,15.52,9.22Z"/>
      <path class="cls-2" d="M859.82,24.73c11.46,2.21,23.76,4.88,36.93,13.88,6.46,4.41,12.36,10.07,18.05,17.51,19.12,24.99,26.99,50.28,23.98,81.82-5.82,61.08-21.76,104.24-21.76,104.24-14.54,36.44-44.15,110.64-103.62,129.9-7.73,2.5-23.37,6.82-41.51,2.33-16.33-4.04-35.81-24.39-44.91-38.06-6.32-9.49-19.66-27.22-24.1-52.93-1.62-9.37-1.77-23.31-2.06-51.19-.08-7.91-.14-13.67,0-21.5.31-16.85.7-37.82,4.53-59.72,2.2-12.57,5.02-28.7,13.71-47.79,5.61-12.33,21.94-46.97,58.69-66.93,8.95-4.86,16.81-7.6,21.45-9.03,4.72-1.45,29.07-8.63,60.63-2.53ZM861.6,39.96c-5.5-2.73-8.67-5.19-15.16-6.1-20.67-2.91-35.01.53-53.53,7.81-27.15,10.68-52.7,38.97-63.68,65.72-15.98,38.91-16.6,77.28-16.88,119.07-.15,22.65-2.25,51.07,5.88,72.11,7.59,19.63,24.73,44.87,41.81,57.47,15.87,11.7,34.75,12.01,52.71,4.37,30.85-13.12,53.75-73.86,63.39-102.61,3.6-10.73,6.09-21.75,9.43-32.57,4.04-13.05,8.95-24.86,12.12-37.88,5.98-24.56,13.88-66.78,7-90.76-2.52-8.79-16.94-34.14-22.91-41.98s-11.92-10.56-20.19-14.66Z"/>
      <path class="cls-2" d="M429.61,15.95c10.08,6.1,22.88,25.73,25.19,37.05,4.68,22.94,4.1,41.68-.94,64.51-4.6,20.86-11.4,40.9-18.59,61.82-6.32,18.41-10.24,36.97-7.98,56.67,2.53,22.01,4.2,45.69,3.05,68-.86,16.62-10.21,31.04-20.03,43.61-7.83,10.02-20.11,21.9-33.77,21.14-15.09-.84-27.26-3.61-31.99-19.51-5.26-17.68-.17-41.68,3.24-59.78,2.74-14.52,7.57-29.08,9.03-44.47,3.22-34.01.83-72.21-9.05-104.87-6.76-22.39-17.93-42.53-15.95-67.63,1.58-20.15,9.71-40.85,26.76-52.76,18.6-12.99,51.17-15.78,71.02-3.77ZM404.63,23.93c-10.66-4.43-28.14-3.07-37.59,3.49-11.39,7.9-19.94,23.26-22.6,36.68-5.16,25.95,5.77,45.67,13.21,69.05,14.35,45.07,17.58,105.86,6.05,140.72-2.78,8.41-4.49,17-7.91,34.17-2.54,12.74-3.91,21.94-.48,32.37,1.53,4.67,4.02,11.88,10.84,14.89,6.25,2.76,12.56.42,14.26-.29,2.82-1.17,7.9-4.07,14.39-17.63,6.68-13.95,8.47-25.84,8.56-26.47,3.01-21.16,1.29-37.79.47-53.42-1.35-25.46-2.65-52.12,1.88-77.13,2.59-14.3,7.17-25.41,11.47-38.55,6.61-20.19,16.94-60.1,11.54-80.21-1.96-7.3-4.52-14.56-7.82-21.29-3.1-6.33-9.73-13.66-16.26-16.37Z"/>
      <path class="cls-2" d="M830.68,85.39c1.29.43,7.13,2.43,13.45,7.63,13.25,10.91,16.99,26.32,18.32,32.13,2.64,11.55,2,22.13-9.99,64.47-7.59,26.78-7.2,22.95-16,51.99-6.38,21.06-12.65,52.03-30.04,66.58-6.57,5.5-12.09,7.9-17.15,7.21-5.53-.75-9.75-4.75-14.29-11.06-12.21-16.96-15.59-35.1-16.82-42.57-1.15-7.02-2.38-16.59-2.81-46.32-.45-30.75-.61-46.4,2.22-60.12,4.86-23.52,13.17-37.38,16.1-42,6.5-10.24,12.82-19.91,25.38-25.56,3.51-1.58,16.76-7.3,31.64-2.39ZM836.14,100.43c-1.36-.77-5.01-2.76-9.59-2.67-8.87.18-15.33,7.98-17.99,11.44-18.35,23.81-30.28,63.55-29.25,93.8,0,0-1.39,30.75,11.69,67.56,0,0,5.12,14.41,12.68,16.15,2.22.51,4.02-.12,4.02-.12.31-.13,4.45-4.44,4.62-4.73,6.75-11.88,11.18-33.35,15.03-46.78,8.82-30.68,21.27-60.98,24.99-93.09,1.05-9.04-.73-18.94-4.81-26.7-4.86-9.23-8.31-13.13-11.39-14.86Z"/>
      <path class="cls-3" d="M279.14,14.92c-3.06-1.45-10.36-4.06-13.53-3.65-36.8,4.75-45.08,39.63-63.81,64.57-9.83,13.09-21.65,26.3-35.41,35.32-10.31,6.76-21.42,12.5-31.63,18.64-2.82,1.7-7.53,6.26-10.68,6.48-.9.06-4.95-1.18-5.19-1.86-.6-1.75.1-7.93-.07-10.43-1-14.64-1.3-29.59-4.52-43.98-4.23-18.92-20.51-47.91-38.88-57.22-18.12-9.18-38.09,6.92-42.06,24.73-5.8,26,8.92,55.87,13.33,81.1,6.34,36.25-2.8,56.35-14.61,87.62-10.68,28.29-24.68,55.85-19.23,87.22,4,23.04,20.33,43.6,43.07,50.43,14.07,4.23,30.7-2.53,36.52-16.29,4.76-11.26,4.11-30.91,3.91-43.64-.34-20.98-5.71-51.09,10.32-66.74,14.9-14.55,31.86-14.15,46.91-1.01,11.79,10.3,21.95,23.98,31.03,36.72,13.32,18.7,25,38.84,39.4,56.63,4.73,5.85,11.23,14.71,16.7,19.65,8.67,7.82,24.4,1.12,29.13-8.18,3.49-6.84,5.51-23.32,5-31.06-1.3-19.64-13.22-38.54-27.5-52-8.83-8.32-21.6-18.11-31.85-24.66-17.07-10.9-51.04-21.83-58.76-42.23-5.68-15.02,7.12-30.59,17.27-40.67,16.68-16.57,36.05-20.32,56.16-30.34,20.67-10.3,38.41-24.81,51.88-44.14,8.23-11.81,15.31-24.13,8.62-38.53-2.34-5.04-6.42-10.07-11.51-12.47Z"/>
      <path class="cls-1" d="M404.63,23.93c-10.66-4.43-28.14-3.07-37.59,3.49-11.39,7.9-19.94,23.26-22.6,36.68-5.16,25.95,5.77,45.67,13.21,69.05,14.35,45.07,17.58,105.86,6.05,140.72-2.78,8.41-4.49,17-7.91,34.17-2.54,12.74-3.91,21.94-.48,32.37,1.53,4.67,4.02,11.88,10.84,14.89,6.25,2.76,12.56.42,14.26-.29,2.82-1.17,7.9-4.07,14.39-17.63,6.68-13.95,8.47-25.84,8.56-26.47,3.01-21.16,1.29-37.79.47-53.42-1.35-25.46-2.65-52.12,1.88-77.13,2.59-14.3,7.17-25.41,11.47-38.55,6.61-20.19,16.94-60.1,11.54-80.21-1.96-7.3-4.52-14.56-7.82-21.29-3.1-6.33-9.73-13.66-16.26-16.37Z"/>
      <path class="cls-4" d="M487.82,347.23c8.3.78,14.57-4.52,16.66-6.18,2.78-2.21,7.11-6.62,11-17.92,3.46-10.05,3.59-16.97,4.53-26.76,2.46-25.7,4.39-43.74,15.19-48.87,3.81-1.81,7.46-1.41,10.25-1.1,11.94,1.32,19.85,11.54,27.27,21.41,3.9,5.18,6.04,8.96,9.24,14.43,0,0,29.87,51.09,46.85,55.74,4.72,1.29,7.47.87,12.21.19,11.26-1.61,20.78-4.63,26.63-15.11,13.4-24.04-11.59-48.72-31-60.16-18.89-11.13-39.94-21.63-58.2-34.16-11.28-7.74-18.85-12.85-22.15-26.73-4.86-20.39,11.56-45.62,26.01-59.05,15.78-14.67,23.96-14.44,43.49-20.5,7.74-2.4,14.12-5.8,19.45-10.05,11.01-8.76,15.69-19.4,22.71-35.76.29-.67,2.29-5.41,3.31-11.97.94-5.99.22-8.15,0-8.76-1.71-4.69-6.52-6.9-8.92-7.96-13.19-5.82-29.09-.44-36.94,2.33-11.7,4.13-19.68,9.49-24.93,13.07-13.54,9.23-22.24,18.89-25.64,22.86-16.94,19.77-28,41.58-28,41.58-3,5.91-7.08,14.73-11.79,14.34-2.35-.19-4.1-2.63-5.22-4.7.18-3.57.41-8.94.5-15.5.09-6.24.02-10.98,0-11.96-.43-24.2-7.28-44.26-7.28-44.26-2.24-7.3-8.22-25.05-16.98-26.02-10.12-1.12-18.49,4.06-22.7,12.93-2.46,5.17-3.55,10.28-4.6,15.3-2.6,12.52-.85,22.82,1.01,35.06,4.02,26.45,13.04,52.52,13.05,79.46.03,41.27-25.18,75.5-30.99,115.55-1.45,10-1.26,18.58,1.8,26.51,1.26,3.26,3.77,8.52,8.64,13.48,3.75,3.82,8.39,8.56,15.52,9.22Z"/>
      <path class="cls-5" d="M904.7,96.59c-2.52-8.79-16.94-34.14-22.91-41.98-6.2-8.13-11.92-10.56-20.19-14.66-5.5-2.73-8.67-5.19-15.16-6.1-20.67-2.91-35.01.53-53.53,7.81-27.15,10.68-52.7,38.97-63.68,65.72-15.98,38.91-16.6,77.28-16.88,119.07-.15,22.65-2.25,51.07,5.88,72.11,7.59,19.63,24.73,44.87,41.81,57.47,15.87,11.7,34.75,12.01,52.71,4.37,30.85-13.12,53.75-73.86,63.39-102.61,3.6-10.73,6.09-21.75,9.43-32.57,4.04-13.05,8.95-24.86,12.12-37.88,5.98-24.56,13.88-66.78,7-90.76ZM852.74,189.34c-7.59,26.78-7.2,22.95-16,51.99-6.38,21.06-12.65,52.03-30.04,66.58-6.57,5.5-12.09,7.9-17.15,7.21-5.53-.75-9.75-4.75-14.29-11.06-12.21-16.96-15.59-35.1-16.82-42.57-1.15-7.02-2.38-16.59-2.81-46.32-.45-30.75-.61-46.4,2.22-60.12,4.86-23.52,13.17-37.38,16.1-42,6.5-10.24,12.82-19.91,25.38-25.56,3.51-1.58,16.76-7.3,31.64-2.39,1.29.43,7.13,2.43,13.45,7.63,13.25,10.91,16.99,26.32,18.32,32.13,2.64,11.55,2,22.13-9.99,64.47Z"/>
    </g>
  </g>
</svg>