<svg viewBox="0 0 35.1298 35.1294" fill="none" xmlns="http://www.w3.org/2000/svg" preserveAspectRatio="xMidYMid meet">
<path d="M15.3491 19.7802L23.8299 11.2994M32.5053 6.12372L25.3467 29.3892C24.7052 31.4742 24.3842 32.5173 23.8308 32.863C23.3509 33.1629 22.7567 33.213 22.234 32.9961C21.6312 32.746 21.142 31.7693 20.1661 29.8175L15.632 20.7492C15.4771 20.4395 15.3996 20.2853 15.2962 20.1511C15.2044 20.032 15.0984 19.9247 14.9793 19.8329C14.8482 19.7318 14.6966 19.656 14.4007 19.5081L5.31142 14.9634C3.35964 13.9876 2.38366 13.4992 2.13357 12.8964C1.91667 12.3737 1.96614 11.7789 2.26601 11.299C2.61179 10.7456 3.65471 10.4241 5.74038 9.78235L29.0059 2.62372C30.6456 2.11921 31.4657 1.86715 32.0196 2.07047C32.502 2.24757 32.8823 2.62752 33.0594 3.10993C33.2626 3.6635 33.0104 4.48326 32.5064 6.1213L32.5053 6.12372Z" stroke="currentColor" stroke-width="4" stroke-linecap="round" stroke-linejoin="round"/>
</svg>
