<svg viewBox="0 0 36 36" fill="none" xmlns="http://www.w3.org/2000/svg" preserveAspectRatio="xMidYMid meet">
<path d="M34.0002 28.6849V17.589C34.0002 16.5203 33.9993 15.9857 33.8694 15.4884C33.7542 15.0477 33.5652 14.6307 33.3094 14.2539C33.0207 13.8286 32.6193 13.4759 31.8151 12.7722L22.2151 4.37222C20.7219 3.06565 19.9753 2.4127 19.135 2.16421C18.3946 1.94526 17.6055 1.94526 16.8651 2.16421C16.0255 2.41251 15.2799 3.06485 13.789 4.36944L4.18579 12.7722C3.38152 13.476 2.98032 13.8286 2.69165 14.2539C2.43583 14.6307 2.24534 15.0477 2.13018 15.4884C2.00024 15.9857 2.00024 16.5203 2.00024 17.589V28.6849C2.00024 30.5487 2.00024 31.4802 2.30472 32.2153C2.7107 33.1954 3.48888 33.975 4.46899 34.381C5.20408 34.6855 6.13596 34.6855 7.99973 34.6855C9.86349 34.6855 10.7964 34.6855 11.5315 34.381C12.5116 33.975 13.2896 33.1956 13.6956 32.2155C14 31.4804 14.0002 30.5485 14.0002 28.6847V26.6847C14.0002 24.4756 15.7911 22.6847 18.0002 22.6847C20.2094 22.6847 22.0002 24.4756 22.0002 26.6847V28.6847C22.0002 30.5485 22.0002 31.4804 22.3047 32.2155C22.7107 33.1956 23.4889 33.975 24.469 34.381C25.2041 34.6855 26.136 34.6855 27.9997 34.6855C29.8635 34.6855 30.7964 34.6855 31.5315 34.381C32.5116 33.975 33.2896 33.1954 33.6956 32.2153C34 31.4802 34.0002 30.5487 34.0002 28.6849Z" stroke="currentColor" stroke-width="4" stroke-linecap="round" stroke-linejoin="round"/>
</svg>
