<svg viewBox="0 0 36 40" fill="none" xmlns="http://www.w3.org/2000/svg" preserveAspectRatio="xMidYMid meet">
<path d="M10 6H8.40039C6.16018 6 5.03924 6 4.1836 6.43597C3.43095 6.81947 2.81947 7.43095 2.43598 8.18359C2 9.03924 2 10.1602 2 12.4004V14M10 6H26M10 6V2M26 6H27.6004C29.8406 6 30.9591 6 31.8148 6.43597C32.5674 6.81947 33.181 7.43095 33.5645 8.18359C34 9.0384 34 10.158 34 12.3938V14M26 6V2M2 14V31.6004C2 33.8406 2 34.9601 2.43598 35.8158C2.81947 36.5684 3.43095 37.181 4.1836 37.5645C5.03841 38 6.15799 38 8.39382 38H27.6062C29.842 38 30.96 38 31.8148 37.5645C32.5674 37.181 33.181 36.5684 33.5645 35.8158C34 34.961 34 33.843 34 31.6072V14M2 14H34M26 30H26.004L26.0039 30.004L26 30.0039V30ZM18 30H18.004L18.0039 30.004L18 30.0039V30ZM10 30H10.004L10.0039 30.004L10 30.0039V30ZM26.0039 22V22.004L26 22.0039V22H26.0039ZM18 22H18.004L18.0039 22.004L18 22.0039V22ZM10 22H10.004L10.0039 22.004L10 22.0039V22Z" stroke="currentColor" stroke-width="4" stroke-linecap="round" stroke-linejoin="round"/>
</svg>
