<svg viewBox="0 0 40 34" fill="none" xmlns="http://www.w3.org/2000/svg" preserveAspectRatio="xMidYMid meet">
<path d="M30 32C30 28.6863 25.5228 26 20 26C14.4772 26 10 28.6863 10 32M38 26.0007C38 23.5404 35.5318 21.4259 32 20.5M2 26.0007C2 23.5404 4.46819 21.4259 8 20.5M32 12.4722C33.2275 11.3736 34 9.777 34 8C34 4.68629 31.3137 2 28 2C26.4633 2 25.0615 2.57771 24 3.52779M8 12.4722C6.7725 11.3736 6 9.777 6 8C6 4.68629 8.68629 2 12 2C13.5367 2 14.9385 2.57771 16 3.52779M20 20C16.6863 20 14 17.3137 14 14C14 10.6863 16.6863 8 20 8C23.3137 8 26 10.6863 26 14C26 17.3137 23.3137 20 20 20Z" stroke="currentColor" stroke-width="4" stroke-linecap="round" stroke-linejoin="round"/>
</svg>
