<svg viewBox="0 0 40.6542 38.568" fill="none" xmlns="http://www.w3.org/2000/svg" preserveAspectRatio="xMidYMid meet">
<g>
<path d="M35.6353 13.6429L34.9639 13.2694C34.8596 13.2114 34.8084 13.1823 34.758 13.1521C34.2573 12.8522 33.8353 12.4378 33.5274 11.9421C33.4964 11.8922 33.4672 11.8399 33.4075 11.7365C33.3479 11.6333 33.3176 11.5809 33.2899 11.5291C33.0137 11.0134 32.8643 10.4386 32.8553 9.85362C32.8544 9.79482 32.8546 9.73472 32.8566 9.61526L32.8697 8.83561C32.8907 7.58798 32.9013 6.96223 32.7259 6.40065C32.5702 5.90183 32.3096 5.44238 31.9617 5.05247C31.5684 4.61174 31.0241 4.29731 29.9342 3.66925L29.0288 3.14755C27.942 2.52124 27.3983 2.20798 26.8213 2.08855C26.3108 1.9829 25.784 1.9878 25.2754 2.10198C24.7013 2.23086 24.1645 2.55228 23.0915 3.19477L23.0854 3.19768L22.4367 3.58609C22.3341 3.64751 22.2822 3.67847 22.2308 3.70705C21.7206 3.9907 21.1511 4.14755 20.5677 4.16627C20.5089 4.16816 20.4491 4.16816 20.3294 4.16816C20.2106 4.16816 20.1482 4.16816 20.0895 4.16627C19.5048 4.14746 18.9341 3.98977 18.4232 3.70494C18.3717 3.67624 18.3207 3.64503 18.2179 3.58333L17.5651 3.19142C16.4848 2.54285 15.9438 2.21807 15.3666 2.08855C14.8558 1.97397 14.3272 1.9708 13.8149 2.07781C13.2364 2.19864 12.6926 2.51423 11.6051 3.14541L11.6003 3.14755L10.7062 3.66645L10.6963 3.6725C9.61863 4.29799 9.07847 4.61149 8.6885 5.05043C8.34244 5.43994 8.08377 5.89867 7.92895 6.39617C7.75395 6.95852 7.76327 7.58561 7.78436 8.83912L7.79746 9.61767C7.79945 9.73556 7.80289 9.79415 7.80203 9.85213C7.79335 10.4383 7.64196 11.0143 7.36492 11.5309C7.33752 11.582 7.308 11.6331 7.24904 11.7352C7.19004 11.8373 7.16147 11.8881 7.13088 11.9374C6.82155 12.4358 6.39764 12.8526 5.89383 13.153C5.84399 13.1827 5.79147 13.2113 5.68828 13.2685L5.02541 13.6358C3.92254 14.247 3.37123 14.5529 2.97007 14.9881C2.61519 15.3732 2.3471 15.8299 2.18345 16.3273C1.99847 16.8896 1.99862 17.5201 2.00149 18.781L2.00383 19.8116C2.00667 21.0641 2.01057 21.6899 2.19597 22.2483C2.35999 22.7424 2.62613 23.1965 2.97902 23.5792C3.37791 24.0118 3.92374 24.3158 5.01825 24.9247L5.67521 25.2901C5.78701 25.3523 5.84328 25.383 5.89719 25.4155C6.39643 25.7161 6.81702 26.1318 7.12372 26.6273C7.15685 26.6808 7.18866 26.7364 7.25226 26.8475C7.31508 26.9573 7.34722 27.0121 7.37627 27.0671C7.64517 27.5762 7.78914 28.1419 7.79896 28.7175C7.80002 28.7797 7.79911 28.8426 7.79698 28.9691L7.78436 29.7162C7.76313 30.974 7.75388 31.6037 7.92991 32.1675C8.08564 32.6664 8.34593 33.1258 8.69387 33.5157C9.08717 33.9565 9.6324 34.2707 10.7224 34.8988L11.6275 35.4204C12.7144 36.0467 13.2576 36.3596 13.8346 36.479C14.3451 36.5846 14.8722 36.5805 15.3809 36.4663C15.9558 36.3373 16.4944 36.0147 17.5705 35.3704L18.2192 34.982C18.3218 34.9206 18.3738 34.8898 18.4252 34.8612C18.9354 34.5775 19.5043 34.4199 20.0878 34.4011C20.1465 34.3993 20.2064 34.3993 20.326 34.3993C20.4458 34.3993 20.5056 34.3993 20.5645 34.4012C21.1492 34.42 21.7216 34.5781 22.2326 34.863C22.2776 34.888 22.3226 34.9151 22.4017 34.9626L23.0913 35.3766C24.1718 36.0253 24.7116 36.3491 25.2889 36.4786C25.7996 36.5932 26.3287 36.5979 26.841 36.4909C27.4193 36.3701 27.9642 36.0538 29.0511 35.423L29.9586 34.8963C31.037 34.2704 31.5777 33.9566 31.9678 33.5175C32.3139 33.128 32.5729 32.6695 32.7277 32.172C32.9015 31.6137 32.891 30.9914 32.8702 29.756L32.8566 28.9503C32.8546 28.8324 32.8544 28.7737 32.8553 28.7157C32.864 28.1296 33.0129 27.5532 33.2899 27.0365C33.3173 26.9855 33.347 26.934 33.4058 26.8323C33.4648 26.7302 33.4953 26.6793 33.5259 26.63C33.8352 26.1316 34.2596 25.7144 34.7634 25.414C34.8126 25.3847 34.8633 25.3566 34.964 25.3008L34.9675 25.2992L35.6303 24.9318C36.7332 24.3206 37.2856 24.0145 37.6867 23.5792C38.0416 23.1941 38.3094 22.738 38.473 22.2406C38.6569 21.6816 38.6555 21.0548 38.6526 19.8086L38.6503 18.756C38.6474 17.5035 38.6459 16.8777 38.4605 16.3193C38.2965 15.8252 38.0288 15.3711 37.6759 14.9884C37.2774 14.5562 36.7309 14.2521 35.6385 13.6444L35.6353 13.6429Z" stroke="currentColor" stroke-width="4" stroke-linecap="round" stroke-linejoin="round"/>
<path d="M12.9943 19.2841C12.9943 23.3342 16.2776 26.6174 20.3277 26.6174C24.3777 26.6174 27.661 23.3342 27.661 19.2841C27.661 15.234 24.3777 11.9508 20.3277 11.9508C16.2776 11.9508 12.9943 15.234 12.9943 19.2841Z" stroke="currentColor" stroke-width="4" stroke-linecap="round" stroke-linejoin="round"/>
</g>
</svg>
