<svg preserveAspectRatio="none" width="100%" height="100%" overflow="visible" style="display: block;" viewBox="0 0 70 70" fill="none" xmlns="http://www.w3.org/2000/svg">
<path id="Face ID Symbol" d="M2.6123 48.0596C4.05393 48.0598 5.22363 49.2302 5.22363 50.6719C5.22367 57.0657 6.86453 59.5937 8.64062 61.3594C10.4167 63.1355 12.9343 64.7763 19.3281 64.7764C20.7698 64.7764 21.9402 65.9461 21.9404 67.3877C21.9404 68.8295 20.7699 70 19.3281 70C10.9596 70 7.25034 67.3571 4.94141 65.0586C2.64292 62.7601 5.1046e-05 59.0404 0 50.6719C0 49.2301 1.17051 48.0596 2.6123 48.0596ZM67.3877 48.0596C68.8295 48.0596 70 49.2301 70 50.6719C69.9999 59.0404 67.3571 62.7497 65.0586 65.0586C62.7601 67.3675 59.0404 69.9999 50.6719 70C49.2301 70 48.0596 68.8295 48.0596 67.3877C48.0598 65.9461 49.2302 64.7764 50.6719 64.7764C57.0657 64.7763 59.5937 63.1355 61.3594 61.3594C63.125 59.5833 64.7763 57.0657 64.7764 50.6719C64.7764 49.2302 65.9461 48.0598 67.3877 48.0596ZM45.7822 45.3018C46.4612 45.3018 47.0566 45.5417 47.5371 46.0117C48.0282 46.4819 48.2686 47.0776 48.2686 47.7881C48.2686 48.1746 48.2165 48.5193 48.1016 48.8223C47.9867 49.1252 47.8196 49.3971 47.5898 49.627C45.9078 51.309 43.954 52.6151 41.7393 53.5449C39.5244 54.4748 37.2672 54.9443 34.9688 54.9443L34.9482 54.9551C32.6288 54.9551 30.3297 54.5056 28.0625 53.5967C25.7851 52.6878 23.8837 51.3508 22.3584 49.5957C22.1077 49.3241 21.9086 49.0317 21.7832 48.7393C21.6579 48.4468 21.5957 48.133 21.5957 47.7988C21.5957 47.0884 21.8466 46.4926 22.3271 46.0225C22.8077 45.5524 23.4136 45.3115 24.124 45.3115C24.5836 45.3115 24.9595 45.4063 25.252 45.6152C25.5445 45.8242 25.8474 46.0646 26.1504 46.3467C27.2473 47.4645 28.5954 48.3623 30.1729 49.0205C31.7608 49.6787 33.3491 50.0136 34.958 50.0137C36.6714 50.0137 38.3118 49.6791 39.8789 49C41.446 48.3209 42.7521 47.4329 43.7969 46.3359C44.4342 45.6464 45.1031 45.3018 45.7822 45.3018ZM35.9189 21.627C36.6816 21.627 37.2881 21.8466 37.7373 22.2959C38.1864 22.7346 38.4062 23.3298 38.4062 24.0713V36.1279C38.4062 38.071 37.9045 39.5445 36.8809 40.5684C35.857 41.5818 34.3836 42.0937 32.4404 42.0938H32.0957L32.085 42.1045C31.1447 42.1045 30.4029 41.8747 29.8701 41.415C29.3373 40.9553 29.0654 40.3179 29.0654 39.5029C29.0654 38.8134 29.3062 38.2279 29.7764 37.7578C30.2568 37.288 30.8313 37.0479 31.5205 37.0479H32.8584C33.0359 37.0478 33.1719 37.0061 33.2764 36.9121C33.3808 36.8285 33.4326 36.6816 33.4326 36.4727V24.0713C33.4327 23.3299 33.6627 22.745 34.1221 22.2959C34.5817 21.8467 35.1565 21.627 35.9189 21.627ZM20.624 21.6689C21.5224 21.669 22.2535 21.9509 22.8281 22.5254C23.4027 23.0999 23.6855 23.8415 23.6855 24.7607V29.9639C23.6855 30.8833 23.4028 31.6256 22.8281 32.2002C22.2536 32.7746 21.5119 33.0566 20.624 33.0566C19.7255 33.0566 18.9936 32.7748 18.4189 32.2002C17.8444 31.6256 17.5625 30.8832 17.5625 29.9639V24.7607C17.5626 23.8417 17.8446 23.0999 18.4189 22.5254C18.9936 21.9508 19.7255 21.6689 20.624 21.6689ZM49.627 21.6689C50.5253 21.669 51.2565 21.9509 51.8311 22.5254C52.4056 23.0999 52.6884 23.8415 52.6885 24.7607V29.9639C52.6885 30.8833 52.4057 31.6256 51.8311 32.2002C51.2565 32.7746 50.5149 33.0566 49.627 33.0566C48.7286 33.0566 47.9974 32.7746 47.4229 32.2002C46.8482 31.6256 46.5654 30.8833 46.5654 29.9639V24.7607C46.5655 23.8415 46.8483 23.0999 47.4229 22.5254C47.9974 21.9509 48.7286 21.6689 49.627 21.6689ZM19.3281 0C20.7699 0 21.9404 1.17051 21.9404 2.6123C21.9402 4.05393 20.7698 5.22363 19.3281 5.22363C12.9343 5.22367 10.4063 6.86453 8.64062 8.64062C6.86453 10.4167 5.22367 12.9343 5.22363 19.3281C5.22363 20.7698 4.05393 21.9402 2.6123 21.9404C1.17051 21.9404 0 20.7699 0 19.3281C4.89609e-05 10.9596 2.64292 7.25034 4.94141 4.94141C7.25034 2.64292 10.9596 4.89626e-05 19.3281 0ZM50.6719 0C59.0404 5.10443e-05 62.7497 2.64292 65.0586 4.94141C67.3571 7.23989 70 10.9596 70 19.3281C70 20.7699 68.8295 21.9404 67.3877 21.9404C65.9461 21.9402 64.7764 20.7698 64.7764 19.3281C64.7763 12.9343 63.1355 10.4063 61.3594 8.64062C59.5833 6.86453 57.0657 5.22367 50.6719 5.22363C49.2302 5.22363 48.0598 4.05393 48.0596 2.6123C48.0596 1.17051 49.2301 0 50.6719 0Z" fill="var(--fill-0, #87FA89)"/>
</svg>
