<svg width="300" height="120" viewBox="0 0 299.995 120.002" fill="none" xmlns="http://www.w3.org/2000/svg">
<g id="Logo">
<path id="Vector" d="M89.9495 0.763174C93.7977 2.02261 98.62 7.70759 99.0798 11.8047C99.5972 16.4216 99.4599 20.0341 99.0607 21.6347C95.9981 33.907 82.6619 40.2392 80.1167 41.3839C77.5331 42.5413 72.6342 44.381 69.0543 45.7201C67.9014 46.1538 63.4305 47.8213 58.8542 51.284C57.4586 52.3393 56.1716 53.4712 55.7756 55.2663C55.2455 57.6545 56.6187 59.7237 56.9029 60.1287C57.9472 61.6272 59.1767 62.0672 62.3926 63.6423C64.3438 64.5989 66.2727 65.6 68.1729 66.6522C72.2318 68.8937 76.8593 71.3073 80.7745 73.7274C86.4526 77.2378 95.0272 86.6724 95.7362 93.4191C95.9693 95.6447 95.9502 101.546 95.3817 103.568C94.4205 106.992 91.0321 109.527 88.1069 111.007C85.9512 112.097 84.115 112.387 83.6806 112.454C82.5565 112.62 78.4656 113.089 74.5727 110.732C72.5576 109.514 71.4335 107.987 69.1852 104.933C67.0967 102.098 65.8448 99.7482 65.6053 99.3018C54.9549 79.3677 50.1901 76.2717 47.2489 75.481C45.7415 75.0761 44.7899 75.2929 44.2214 75.5288C41.641 76.5906 40.9385 80.4135 40.5489 82.9388C38.4507 96.496 40.8203 100.475 37.6811 106.46C36.3749 108.95 33.5167 111.472 31.1024 113.044C26.7017 115.914 22.1062 118.008 16.6645 116.443C8.79242 114.179 2.22333 106.441 0.62018 98.476C-1.79732 86.4556 3.35703 76.6862 7.40323 65.9412C10.4499 57.8489 12.8195 52.1385 11.4303 42.7294C9.93251 32.5933 3.58697 21.6698 8.07387 11.4221C11.36 3.91335 25.2423 1.56347 33.5167 5.81685C36.7517 7.47802 38.5721 9.85978 40.8139 12.79C42.4171 14.8848 47.3191 21.8005 47.5363 31.3913C47.5586 32.4371 47.4469 33.4702 47.4501 34.5064C48.8201 33.6997 50.1678 32.8484 51.4931 31.9716C57.3532 28.0785 61.9487 21.7463 65.5542 15.7201C66.2472 14.5627 66.7869 13.1853 67.5118 12.0056C72.1424 4.49046 80.4967 -2.32961 89.9591 0.763174H89.9495ZM89.1384 4.75828C88.1612 4.29596 85.8299 3.46378 84.8175 3.59451C73.0653 5.10901 70.4211 16.2303 64.4396 24.1822C61.3004 28.3559 57.5256 32.5678 53.1314 35.4438C49.8388 37.5992 46.2908 39.4293 43.0302 41.387C42.1296 41.9291 40.6255 43.383 39.6195 43.4532C39.3321 43.4723 38.0387 43.0769 37.9621 42.8601C37.7705 42.3021 37.994 40.3317 37.9397 39.5346C37.6204 34.8667 37.5246 30.1 36.4963 25.5118C35.1454 19.4793 29.9463 10.236 24.0798 7.26758C18.2932 4.3406 11.9157 9.47398 10.6479 15.1526C8.79561 23.4425 13.4965 32.9664 14.9048 41.0108C16.9295 52.5689 14.0106 58.9777 10.2391 68.9479C6.8284 77.968 2.35746 86.7553 4.09793 96.7574C5.37534 104.104 10.5904 110.659 17.8525 112.837C22.3457 114.185 27.6566 112.03 29.5152 107.643C31.0353 104.053 30.8278 97.7873 30.7639 93.7284C30.6553 87.0391 28.9404 77.4387 34.0596 72.4488C38.818 67.8096 44.2342 67.9372 49.0404 72.1268C52.8056 75.4109 56.0502 79.7726 58.95 83.8347C63.2037 89.7971 66.9338 96.2186 71.5325 101.891C73.043 103.756 75.1188 106.581 76.8657 108.156C79.6344 110.649 84.6579 108.513 86.1684 105.548C87.2829 103.367 87.928 98.1125 87.7652 95.6447C87.35 89.3826 83.5433 83.3564 78.983 79.0648C76.1631 76.412 72.0849 73.2905 68.8116 71.2021C63.3602 67.7267 52.5118 64.2418 50.0464 57.7373C48.2325 52.9483 52.3202 47.9839 55.5616 44.77C60.8884 39.4867 67.0743 38.2911 73.4965 35.0963C80.0975 31.8122 85.7628 27.1857 90.0645 21.0225C92.6928 17.257 94.9538 13.3288 92.8173 8.73745C92.07 7.13048 90.7671 5.5267 89.1416 4.76147L89.1384 4.75828Z" fill="#242424"/>
<path id="Vector_2" d="M165.93 10.9885C169.785 13.0482 171.289 13.6126 173.767 17.5886C175.245 19.9608 176.839 23.8379 177.168 26.6278C177.232 27.1602 176.983 28.8884 177.417 29.0892C179.461 26.2994 182.712 22.4509 187.502 18.8225C188.687 17.9265 191.507 15.6149 194.914 14.1961C202.084 11.2085 214.258 8.24643 220.456 14.8146C227.559 22.3393 220.405 34.2673 214.258 39.9267C211.336 42.6178 205.265 45.4682 201.49 46.75C201.03 46.9062 199.379 47.3845 197.166 48.2039C194.518 49.1828 192.778 49.8268 190.932 50.8886C189.687 51.606 187.09 53.1332 184.906 55.9454C183.399 57.884 180.809 61.2191 181.336 64.5797C182.115 69.5569 189.396 72.4743 199.727 76.6129C203.642 78.1816 204.476 78.5515 207.839 79.8651C215.187 82.7411 220.587 87.326 221.574 95.4853C222.28 101.311 217.933 104.853 213.712 107.856C211.454 109.463 209.624 110.512 206.791 111.026C199.887 112.282 194.627 109.932 190.702 104.298C189.297 102.28 188.112 100.297 185.941 96.1835C185.612 95.5618 184.727 93.8687 183.357 91.7261C181.406 88.6684 180.326 87.5939 178.877 87.2846C178.573 87.2208 177.621 87.0168 176.798 87.3739C174.077 88.5472 175.747 94.4394 174.265 100.395C172.656 106.868 167.038 113.707 160.153 114.364C157.103 114.654 153.565 114.715 151.122 112.779C148.088 110.378 145.546 106.75 144.281 103.15C142.786 98.9001 144.735 90.5049 146.053 86.124C147.832 80.2222 150.882 74.1706 152.546 68.0264C155.653 56.5672 152.559 47.1486 150.31 36.0687C148.953 29.3794 148.094 22.2979 151.077 15.8604C152.268 13.2874 153.651 11.5815 156.177 10.2679C160.447 8.05194 162.059 8.91601 165.933 10.9885H165.93ZM155.781 110.713C158.432 110.962 160.434 109.272 161.101 108.743C161.989 108.038 163.372 106.632 164.614 103.029C165.719 99.8247 165.761 97.6183 166.061 94.4968C166.846 86.3026 167.463 80.5506 170.912 78.9149C172.129 78.3378 173.294 78.4654 174.185 78.5642C177.998 78.9851 180.524 82.2437 182.894 85.3907C184.139 87.0423 184.823 88.2475 185.845 89.9916C185.845 89.9916 195.384 106.281 200.806 107.764C202.314 108.175 203.192 108.041 204.706 107.825C208.302 107.311 211.342 106.348 213.21 103.007C217.489 95.3418 209.509 87.4727 203.31 83.8251C197.278 80.2764 190.555 76.9285 184.724 72.9334C181.122 70.4656 178.704 68.8363 177.65 64.4107C176.098 57.9095 181.342 49.8651 185.957 45.583C190.996 40.9056 193.608 40.9789 199.845 39.0467C202.317 38.2815 204.354 37.1974 206.057 35.8424C209.573 33.0493 211.067 29.6568 213.309 24.4405C213.402 24.2269 214.04 22.7156 214.366 20.6239C214.666 18.7141 214.436 18.0254 214.366 17.8309C213.82 16.3355 212.284 15.6309 211.518 15.2929C207.305 13.4372 202.228 15.1526 199.721 16.0358C195.984 17.3526 193.436 19.0616 191.759 20.2031C187.435 23.146 184.657 26.226 183.571 27.4918C178.161 33.7954 174.629 40.7494 174.629 40.7494C173.671 42.6337 172.368 45.4459 170.864 45.3216C170.113 45.261 169.555 44.483 169.197 43.823C169.254 42.6847 169.328 40.9725 169.357 38.8809C169.385 36.8914 169.363 35.38 169.357 35.0676C169.219 27.3515 167.032 20.9555 167.032 20.9555C166.316 18.628 164.407 12.9685 161.609 12.6592C158.377 12.3021 155.704 13.9537 154.36 16.7819C153.574 18.4303 153.226 20.0596 152.891 21.6602C152.06 25.6521 152.619 28.9362 153.213 32.8388C154.497 41.2723 157.378 49.5845 157.381 58.1742C157.39 71.3328 149.34 82.2469 147.484 95.0166C147.021 98.205 147.082 100.941 148.059 103.469C148.461 104.509 149.263 106.186 150.818 107.767C152.016 108.985 153.498 110.496 155.775 110.707L155.781 110.713Z" fill="#242424"/>
<path id="Vector_3" d="M274.58 7.88614C278.24 8.59079 282.168 9.4421 286.374 12.3117C288.437 13.7178 290.321 15.5224 292.138 17.8946C298.244 25.8625 300.758 33.9261 299.796 43.9824C297.938 63.4574 292.847 77.2187 292.847 77.2187C288.204 88.8374 278.748 112.496 259.756 118.636C257.287 119.434 252.293 120.811 246.499 119.379C241.284 118.091 235.063 111.603 232.157 107.244C230.139 104.218 225.879 98.5653 224.461 90.3678C223.944 87.3802 223.896 82.9356 223.803 74.0462C223.778 71.5241 223.758 69.6876 223.803 67.1911C223.902 61.8185 224.027 55.1324 225.25 48.1497C225.952 44.1419 226.853 38.9989 229.628 32.9122C231.42 28.9808 236.635 17.9361 248.371 11.572C251.229 10.0224 253.739 9.14876 255.221 8.69282C256.728 8.23049 264.505 5.94119 274.583 7.88614H274.58ZM275.149 12.7421C273.392 11.8717 272.38 11.0873 270.307 10.7972C263.706 9.86935 259.127 10.9662 253.212 13.2874C244.542 16.6926 236.382 25.7127 232.876 34.2418C227.773 46.648 227.575 58.882 227.485 72.2065C227.437 79.4283 226.767 88.4898 229.363 95.1983C231.787 101.457 237.261 109.505 242.715 113.522C247.783 117.253 253.813 117.352 259.548 114.916C269.4 110.732 276.713 91.3658 279.792 82.199C280.942 78.7778 281.737 75.2642 282.803 71.8143C284.094 67.6534 285.662 63.8878 286.674 59.7365C288.584 51.9057 291.107 38.4441 288.91 30.7982C288.105 27.9956 283.5 19.9129 281.593 17.4132C279.687 14.9135 277.786 14.0462 275.145 12.7389L275.149 12.7421Z" fill="#242424"/>
<path id="Vector_4" d="M137.191 5.08669C140.41 7.03164 144.498 13.2905 145.236 16.8999C146.73 24.2141 146.545 30.1893 144.936 37.4685C143.467 44.1195 141.295 50.5092 138.999 57.1794C136.981 63.0493 135.729 68.967 136.45 75.2482C137.258 82.266 137.792 89.8162 137.425 96.9296C137.15 102.229 134.164 106.827 131.028 110.834C128.527 114.029 124.606 117.817 120.243 117.575C115.424 117.307 111.538 116.424 110.027 111.354C108.347 105.717 109.973 98.0647 111.062 92.2936C111.937 87.664 113.479 83.0216 113.946 78.1146C114.974 67.2708 114.211 55.0909 111.056 44.6775C108.897 37.5386 105.33 31.1171 105.962 23.1141C106.466 16.6894 109.063 10.0894 114.508 6.29192C120.448 2.15014 130.849 1.26057 137.188 5.08988L137.191 5.08669ZM129.214 7.63107C125.81 6.21859 120.227 6.65222 117.209 8.74383C113.572 11.2627 110.842 16.1601 109.992 20.439C108.344 28.713 111.835 35.0006 114.211 42.4552C118.793 56.8255 119.825 76.208 116.143 87.3228C115.255 90.0043 114.709 92.7432 113.617 98.2177C112.806 102.28 112.368 105.213 113.463 108.539C113.952 110.028 114.747 112.327 116.925 113.286C118.921 114.166 120.936 113.42 121.479 113.194C122.38 112.821 124.002 111.896 126.075 107.573C128.208 103.125 128.78 99.3337 128.808 99.1328C129.77 92.3861 129.22 87.0837 128.958 82.1002C128.527 73.9824 128.112 65.4821 129.559 57.5078C130.386 52.9483 131.849 49.406 133.222 45.2164C135.333 38.7789 138.632 26.0539 136.907 19.6419C136.281 17.3143 135.464 14.9995 134.41 12.8537C133.42 10.8354 131.303 8.49832 129.217 7.63425L129.214 7.63107Z" fill="#242424"/>
<path id="Vector_5" d="M265.274 27.2272C265.686 27.3643 267.551 28.002 269.57 29.66C273.801 33.1386 274.995 38.0519 275.42 39.9044C276.263 43.5871 276.059 46.9604 272.23 60.4603C269.806 68.9989 269.93 67.7777 267.12 77.037C265.083 83.7518 263.08 93.6264 257.527 98.2656C255.429 100.019 253.666 100.784 252.05 100.564C250.284 100.325 248.936 99.0499 247.486 97.038C243.587 91.6304 242.508 85.8466 242.115 83.4648C241.747 81.2266 241.355 78.1752 241.217 68.696C241.074 58.8916 241.023 53.9017 241.926 49.5271C243.478 42.0279 246.132 37.6088 247.068 36.1357C249.144 32.8707 251.162 29.7875 255.173 27.986C256.294 27.4823 260.525 25.6585 265.277 27.224L265.274 27.2272ZM267.018 32.0226C266.584 31.7771 265.418 31.1426 263.955 31.1713C261.123 31.2287 259.06 33.7157 258.21 34.8189C252.35 42.4105 248.54 55.0814 248.869 64.7264C248.869 64.7264 248.425 74.5309 252.602 86.2675C252.602 86.2675 254.237 90.862 256.652 91.4168C257.361 91.5794 257.935 91.3786 257.935 91.3786C258.034 91.3371 259.357 89.9629 259.411 89.8704C261.567 86.0826 262.981 79.237 264.211 74.9549C267.027 65.1728 271.003 55.5118 272.191 45.2738C272.527 42.3914 271.958 39.2349 270.655 36.7606C269.103 33.8177 268.001 32.5742 267.018 32.0226Z" fill="#242424"/>
<path id="Vector_6" d="M89.1384 4.75828C88.1612 4.29596 85.8299 3.46378 84.8175 3.59451C73.0654 5.10901 70.4211 16.2303 64.4396 24.1822C61.3004 28.3559 57.5257 32.5678 53.1314 35.4438C49.8388 37.5992 46.2908 39.4293 43.0302 41.387C42.1297 41.9291 40.6255 43.383 39.6195 43.4532C39.3321 43.4723 38.0387 43.0769 37.9621 42.8601C37.7705 42.3021 37.994 40.3317 37.9397 39.5346C37.6204 34.8667 37.5246 30.1 36.4963 25.5118C35.1454 19.4793 29.9463 10.236 24.0798 7.26758C18.2932 4.3406 11.9157 9.47398 10.6479 15.1526C8.79561 23.4425 13.4965 32.9664 14.9048 41.0108C16.9295 52.5689 14.0106 58.9777 10.2391 68.9479C6.8284 77.968 2.35746 86.7553 4.09793 96.7574C5.37534 104.104 10.5904 110.659 17.8525 112.837C22.3457 114.185 27.6566 112.03 29.5152 107.643C31.0353 104.053 30.8278 97.7873 30.7639 93.7284C30.6553 87.0391 28.9404 77.4387 34.0596 72.4488C38.818 67.8096 44.2342 67.9372 49.0404 72.1268C52.8056 75.4109 56.0502 79.7726 58.95 83.8347C63.2037 89.7971 66.9338 96.2186 71.5325 101.891C73.043 103.756 75.1188 106.581 76.8657 108.156C79.6344 110.649 84.6579 108.513 86.1684 105.548C87.2829 103.367 87.928 98.1125 87.7652 95.6447C87.35 89.3826 83.5433 83.3564 78.983 79.0648C76.1631 76.412 72.0849 73.2905 68.8116 71.2021C63.3602 67.7267 52.5118 64.2418 50.0464 57.7374C48.2325 52.9483 52.3202 47.9839 55.5616 44.77C60.8884 39.4867 67.0743 38.2911 73.4965 35.0963C80.0975 31.8122 85.7628 27.1857 90.0645 21.0225C92.6928 17.257 94.9538 13.3288 92.8173 8.73745C92.07 7.13048 90.7671 5.5267 89.1416 4.76147L89.1384 4.75828Z" fill="#F7D67B"/>
<path id="Vector_7" d="M129.214 7.63107C125.81 6.21859 120.227 6.65222 117.209 8.74383C113.572 11.2627 110.842 16.1601 109.992 20.439C108.344 28.713 111.835 35.0006 114.211 42.4552C118.793 56.8255 119.825 76.208 116.143 87.3229C115.255 90.0043 114.709 92.7432 113.617 98.2177C112.806 102.28 112.368 105.213 113.463 108.539C113.952 110.028 114.747 112.327 116.925 113.286C118.921 114.166 120.936 113.42 121.479 113.194C122.38 112.821 124.002 111.896 126.075 107.573C128.208 103.125 128.78 99.3337 128.808 99.1328C129.77 92.3861 129.22 87.0837 128.958 82.1002C128.527 73.9824 128.112 65.4821 129.559 57.5078C130.386 52.9483 131.849 49.406 133.222 45.2164C135.333 38.7789 138.632 26.0539 136.907 19.6419C136.281 17.3143 135.464 14.9995 134.41 12.8537C133.42 10.8354 131.303 8.49832 129.217 7.63426L129.214 7.63107Z" fill="#9ED9C6"/>
<path id="Vector_8" d="M155.781 110.713C158.432 110.962 160.434 109.272 161.101 108.743C161.989 108.038 163.372 106.632 164.614 103.029C165.719 99.8247 165.761 97.6183 166.061 94.4968C166.846 86.3026 167.463 80.5506 170.912 78.9149C172.129 78.3378 173.294 78.4654 174.185 78.5642C177.998 78.9851 180.524 82.2437 182.894 85.3907C184.139 87.0423 184.823 88.2475 185.845 89.9916C185.845 89.9916 195.384 106.281 200.806 107.764C202.314 108.175 203.192 108.041 204.706 107.825C208.302 107.311 211.342 106.348 213.21 103.007C217.489 95.3418 209.509 87.4727 203.31 83.8251C197.278 80.2764 190.555 76.9285 184.724 72.9334C181.122 70.4656 178.704 68.8363 177.65 64.4107C176.098 57.9095 181.342 49.8651 185.957 45.583C190.996 40.9056 193.608 40.9789 199.845 39.0467C202.317 38.2815 204.354 37.1974 206.057 35.8424C209.573 33.0493 211.067 29.6568 213.309 24.4405C213.402 24.2269 214.04 22.7156 214.366 20.6239C214.666 18.7141 214.436 18.0254 214.366 17.8309C213.82 16.3355 212.284 15.6309 211.518 15.2929C207.305 13.4372 202.228 15.1526 199.721 16.0358C195.984 17.3526 193.436 19.0616 191.759 20.2031C187.435 23.146 184.657 26.226 183.571 27.4918C178.161 33.7954 174.629 40.7494 174.629 40.7494C173.671 42.6337 172.368 45.4459 170.864 45.3216C170.113 45.261 169.555 44.483 169.197 43.823C169.254 42.6847 169.328 40.9725 169.357 38.8809C169.385 36.8914 169.363 35.38 169.357 35.0676C169.219 27.3515 167.032 20.9555 167.032 20.9555C166.316 18.628 164.407 12.9685 161.609 12.6592C158.377 12.3021 155.704 13.9537 154.36 16.7819C153.574 18.4303 153.226 20.0596 152.891 21.6602C152.06 25.6521 152.619 28.9362 153.213 32.8388C154.497 41.2723 157.378 49.5845 157.381 58.1742C157.39 71.3328 149.34 82.2469 147.484 95.0166C147.021 98.205 147.082 100.941 148.059 103.469C148.461 104.509 149.263 106.186 150.818 107.767C152.016 108.985 153.498 110.496 155.775 110.707L155.781 110.713Z" fill="#A974C7"/>
<path id="Vector_9" d="M288.913 30.7982C288.108 27.9956 283.503 19.9129 281.596 17.4132C279.616 14.821 277.79 14.0462 275.149 12.7389C273.392 11.8685 272.38 11.0841 270.307 10.794C263.706 9.86616 259.127 10.963 253.212 13.2842C244.542 16.6894 236.382 25.7095 232.876 34.2386C227.773 46.6448 227.575 58.8788 227.485 72.2033C227.437 79.4251 226.767 88.4866 229.363 95.1951C231.787 101.454 237.261 109.502 242.715 113.519C247.783 117.25 253.813 117.348 259.548 114.912C269.4 110.729 276.713 91.3626 279.792 82.1959C280.942 78.7747 281.737 75.261 282.803 71.8111C284.094 67.6502 285.662 63.8847 286.674 59.7333C288.584 51.9025 291.107 38.4409 288.91 30.7951L288.913 30.7982ZM272.319 60.371C269.895 68.9096 270.02 67.6885 267.209 76.9477C265.172 83.6625 263.17 93.5371 257.616 98.1763C255.518 99.9299 253.755 100.695 252.139 100.475C250.373 100.236 249.026 98.9606 247.576 96.9487C243.676 91.5411 242.597 85.7573 242.204 83.3756C241.837 81.1373 241.444 78.086 241.307 68.6067C241.163 58.8023 241.112 53.8124 242.016 49.4378C243.568 41.9386 246.222 37.5195 247.157 36.0464C249.233 32.7815 251.251 29.6982 255.263 27.8968C256.383 27.393 260.615 25.5692 265.367 27.1347C265.779 27.2718 267.644 27.9095 269.662 29.5675C273.894 33.0461 275.088 37.9595 275.513 39.812C276.356 43.4946 276.151 46.868 272.322 60.3678L272.319 60.371Z" fill="#65B6EC"/>
</g>
</svg>
